<?xml version="1.0" encoding="UTF-8"?>
<svg version="1.1" xmlns="http://www.w3.org/2000/svg" width="265" height="248">
<path d="M0 0 C1.63678711 -0.00580078 1.63678711 -0.00580078 3.30664062 -0.01171875 C5.0169043 0.00568359 5.0169043 0.00568359 6.76171875 0.0234375 C7.89029297 0.01183594 9.01886719 0.00023438 10.18164062 -0.01171875 C16.05837359 0.00903487 20.37103082 0.14338946 25.44921875 3.3984375 C26.34125 3.79804687 27.23328125 4.19765625 28.15234375 4.609375 C29.41304687 5.18558594 29.41304687 5.18558594 30.69921875 5.7734375 C31.55 6.15242188 32.40078125 6.53140625 33.27734375 6.921875 C35.96629828 8.74997718 36.52714308 10.33509722 37.44921875 13.3984375 C40.91863421 12.94021282 44.12316924 12.50712067 47.44921875 11.3984375 C52.81980946 10.22109763 58.02924921 10.30082188 63.49365234 10.37670898 C64.4893927 10.38631653 65.48513306 10.39592407 66.51104736 10.40582275 C69.78999138 10.4387047 73.06879763 10.47907808 76.34765625 10.51953125 C78.62594116 10.54384292 80.90423111 10.56768596 83.18252563 10.59107971 C89.16991944 10.65381637 95.15722357 10.72291248 101.14453125 10.79333496 C107.25777107 10.86411258 113.37107431 10.92887309 119.484375 10.99414062 C131.47272596 11.12301866 143.46099079 11.25861542 155.44921875 11.3984375 C155.44921875 8.0984375 155.44921875 4.7984375 155.44921875 1.3984375 C157.09921875 1.0684375 158.74921875 0.7384375 160.44921875 0.3984375 C160.44921875 1.0584375 160.44921875 1.7184375 160.44921875 2.3984375 C160.96484375 2.6253125 161.48046875 2.8521875 162.01171875 3.0859375 C165.3446888 4.88061368 168.59625546 6.89808765 171.44921875 9.3984375 C171.44921875 10.0584375 171.44921875 10.7184375 171.44921875 11.3984375 C172.10921875 11.3984375 172.76921875 11.3984375 173.44921875 11.3984375 C174.43921875 12.8834375 174.43921875 12.8834375 175.44921875 14.3984375 C176.10921875 14.5221875 176.76921875 14.6459375 177.44921875 14.7734375 C178.10921875 14.9796875 178.76921875 15.1859375 179.44921875 15.3984375 C180.11588542 17.06510417 180.78255208 18.73177083 181.44921875 20.3984375 C183.49027514 21.28537053 183.49027514 21.28537053 185.44921875 21.3984375 C185.44921875 22.0584375 185.44921875 22.7184375 185.44921875 23.3984375 C186.10921875 23.3984375 186.76921875 23.3984375 187.44921875 23.3984375 C187.44921875 24.0584375 187.44921875 24.7184375 187.44921875 25.3984375 C188.10921875 25.3984375 188.76921875 25.3984375 189.44921875 25.3984375 C187.89318104 29.21780278 185.49316944 31.65888188 182.44921875 34.3984375 C181.78921875 34.3984375 181.12921875 34.3984375 180.44921875 34.3984375 C180.44921875 35.0584375 180.44921875 35.7184375 180.44921875 36.3984375 C179.87171875 36.6459375 179.29421875 36.8934375 178.69921875 37.1484375 C176.31471986 38.33834225 176.31471986 38.33834225 174.32421875 40.5234375 C173.39609375 41.4515625 173.39609375 41.4515625 172.44921875 42.3984375 C171.78921875 42.3984375 171.12921875 42.3984375 170.44921875 42.3984375 C170.44921875 43.0584375 170.44921875 43.7184375 170.44921875 44.3984375 C169.12921875 44.3984375 167.80921875 44.3984375 166.44921875 44.3984375 C166.44921875 45.0584375 166.44921875 45.7184375 166.44921875 46.3984375 C165.78921875 46.3984375 165.12921875 46.3984375 164.44921875 46.3984375 C164.44921875 47.0584375 164.44921875 47.7184375 164.44921875 48.3984375 C163.78921875 48.3984375 163.12921875 48.3984375 162.44921875 48.3984375 C162.44921875 49.0584375 162.44921875 49.7184375 162.44921875 50.3984375 C161.78921875 50.3984375 161.12921875 50.3984375 160.44921875 50.3984375 C160.44921875 51.0584375 160.44921875 51.7184375 160.44921875 52.3984375 C158.51171875 52.9609375 158.51171875 52.9609375 156.44921875 53.3984375 C155.44921875 52.3984375 155.44921875 52.3984375 155.3515625 50.11328125 C155.36896484 48.73849609 155.36896484 48.73849609 155.38671875 47.3359375 C155.39574219 46.41683594 155.40476563 45.49773437 155.4140625 44.55078125 C155.43146484 43.48537109 155.43146484 43.48537109 155.44921875 42.3984375 C142.88819828 42.45963236 130.32738586 42.5367271 117.76659107 42.63415241 C111.93417045 42.67889013 106.10182024 42.7181389 100.26928711 42.74487305 C94.64113206 42.77087186 89.01324746 42.81125036 83.38525963 42.86162376 C81.23749847 42.87831558 79.08969052 42.88981541 76.94187355 42.89605141 C73.93467445 42.90566714 70.92817087 42.93369677 67.92114258 42.96606445 C67.03209732 42.96462936 66.14305206 42.96319427 65.22706604 42.9617157 C60.53733055 43.03315833 57.18716619 43.22975316 53.44921875 46.3984375 C52.7550777 48.96141984 52.5155981 50.79067737 52.44921875 53.3984375 C52.41054687 54.25179687 52.371875 55.10515625 52.33203125 55.984375 C52.19775599 61.31062684 52.62930717 66.04713003 53.94140625 71.203125 C54.64696568 74.25331268 54.93050413 77.30583586 55.23046875 80.41796875 C55.42031891 82.4892631 55.42031891 82.4892631 56.01171875 84.8359375 C56.72239256 88.99845554 56.52283349 93.18603824 56.44921875 97.3984375 C57.10921875 97.7284375 57.76921875 98.0584375 58.44921875 98.3984375 C56.57421875 103.1484375 56.57421875 103.1484375 55.44921875 105.3984375 C54.45921875 105.7284375 53.46921875 106.0584375 52.44921875 106.3984375 C51.97484375 107.0584375 51.50046875 107.7184375 51.01171875 108.3984375 C49.44921875 110.3984375 49.44921875 110.3984375 47.51171875 110.7109375 C43.9738136 111.89023922 43.08419173 115.18688343 41.44921875 118.3984375 C40.45921875 118.3984375 39.46921875 118.3984375 38.44921875 118.3984375 C38.11921875 119.0584375 37.78921875 119.7184375 37.44921875 120.3984375 C35.29287839 120.3984375 33.52475523 119.9519139 31.44921875 119.3984375 C31.32546875 118.5940625 31.20171875 117.7896875 31.07421875 116.9609375 C30.86796875 116.1153125 30.66171875 115.2696875 30.44921875 114.3984375 C29.45921875 113.9034375 29.45921875 113.9034375 28.44921875 113.3984375 C28.51432292 111.47786458 28.57942708 109.55729167 28.64453125 107.63671875 C28.55517145 105.31157868 28.55517145 105.31157868 27.44921875 102.9921875 C26.29971894 100.01067236 26.24756174 97.76720348 26.32421875 94.5859375 C26.34226563 93.61011719 26.3603125 92.63429688 26.37890625 91.62890625 C26.40210938 90.89285156 26.4253125 90.15679687 26.44921875 89.3984375 C25.78921875 89.3984375 25.12921875 89.3984375 24.44921875 89.3984375 C24.47242188 88.78097656 24.495625 88.16351563 24.51953125 87.52734375 C24.63028605 82.32977912 24.22816864 77.79646453 22.95703125 72.765625 C22.18478205 69.16575567 21.95462789 65.54636672 21.6953125 61.87890625 C21.47052876 59.61322891 21.01111756 57.59736435 20.44921875 55.3984375 C20.30560103 53.98353701 20.1813437 52.56656785 20.07421875 51.1484375 C19.4644007 45.28256863 17.74523483 40.34246162 14.44921875 35.3984375 C12.38996736 34.67461283 12.38996736 34.67461283 10.44921875 34.3984375 C10.44921875 33.7384375 10.44921875 33.0784375 10.44921875 32.3984375 C9.54558594 32.41003906 8.64195313 32.42164063 7.7109375 32.43359375 C6.53144531 32.44261719 5.35195313 32.45164063 4.13671875 32.4609375 C2.96496094 32.47253906 1.79320312 32.48414063 0.5859375 32.49609375 C-2.55078125 32.3984375 -2.55078125 32.3984375 -5.55078125 31.3984375 C-5.55078125 30.0784375 -5.55078125 28.7584375 -5.55078125 27.3984375 C-6.54078125 27.0684375 -7.53078125 26.7384375 -8.55078125 26.3984375 C-8.63776625 22.62774918 -8.69116704 18.85731818 -8.73828125 15.0859375 C-8.76341797 14.01408203 -8.78855469 12.94222656 -8.81445312 11.83789062 C-8.82412109 10.80986328 -8.83378906 9.78183594 -8.84375 8.72265625 C-8.85946045 7.77479248 -8.8751709 6.82692871 -8.89135742 5.8503418 C-8.55078125 3.3984375 -8.55078125 3.3984375 -7.37939453 1.59057617 C-4.84766727 -0.05994775 -3.01044286 0.01025372 0 0 Z M156.44921875 42.3984375 C156.44921875 45.0384375 156.44921875 47.6784375 156.44921875 50.3984375 C156.77921875 50.3984375 157.10921875 50.3984375 157.44921875 50.3984375 C157.44921875 47.7584375 157.44921875 45.1184375 157.44921875 42.3984375 C157.11921875 42.3984375 156.78921875 42.3984375 156.44921875 42.3984375 Z " fill="#2B366A" transform="translate(39.55078125,29.6015625)"/>
<path d="M0 0 C1.32 0 2.64 0 4 0 C4.625 2.875 4.625 2.875 5 6 C4.34 6.66 3.68 7.32 3 8 C2.57354771 10.8595077 2.57354771 10.8595077 2.4375 14.0625 C2.09722222 19.90277778 2.09722222 19.90277778 1 21 C-0.53656163 26.94217194 -1.28693932 32.95771637 -1.75390625 39.06640625 C-2 41 -2 41 -3 42 C-3.27142074 43.35135245 -3.48990422 44.7134613 -3.68359375 46.078125 C-3.80669922 46.90957031 -3.92980469 47.74101563 -4.05664062 48.59765625 C-4.30826975 50.35002726 -4.55829972 52.10262872 -4.80664062 53.85546875 C-5.45251244 58.1992077 -6.22807942 61.95399511 -8 66 C-8.37309899 67.65821773 -8.70700977 69.32577014 -9 71 C-9.67246362 74.52518036 -10.33971574 77.78319925 -12 81 C-12.99 81.495 -12.99 81.495 -14 82 C-14.268125 82.763125 -14.53625 83.52625 -14.8125 84.3125 C-16.27674506 87.62631776 -18.02551775 88.99222448 -21 91 C-21.66 91 -22.32 91 -23 91 C-23 91.66 -23 92.32 -23 93 C-23.66 93 -24.32 93 -25 93 C-25 93.99 -25 94.98 -25 96 C-26.19625 96.474375 -27.3925 96.94875 -28.625 97.4375 C-29.29789062 97.70433594 -29.97078125 97.97117187 -30.6640625 98.24609375 C-35.93134524 99.94606962 -41.16686291 100.14217373 -46.65771484 100.11352539 C-47.39986237 100.11367142 -48.14200989 100.11381744 -48.90664673 100.1139679 C-51.34144083 100.11327539 -53.77615689 100.10551419 -56.2109375 100.09765625 C-57.90630044 100.09578972 -59.60166392 100.09436692 -61.29702759 100.09336853 C-65.74560044 100.08956189 -70.19414032 100.07974751 -74.6427002 100.06866455 C-79.18757684 100.05841051 -83.73245885 100.05386237 -88.27734375 100.04882812 C-97.18491027 100.0381235 -106.09245239 100.02106944 -115 100 C-115 102.64 -115 105.28 -115 108 C-118.01031744 108.93423645 -118.86650268 109.04449911 -122 108 C-123.1875 105.4375 -123.1875 105.4375 -124 103 C-124.66 103 -125.32 103 -126 103 C-126 102.34 -126 101.68 -126 101 C-126.66 101 -127.32 101 -128 101 C-128 100.34 -128 99.68 -128 99 C-128.721875 98.938125 -129.44375 98.87625 -130.1875 98.8125 C-133.88399074 97.7446249 -135.53138868 95.89180184 -138 93 C-138 92.34 -138 91.68 -138 91 C-139.98 90.34 -141.96 89.68 -144 89 C-144 87.68 -144 86.36 -144 85 C-143.34 85 -142.68 85 -142 85 C-142 84.01 -142 83.02 -142 82 C-139.525 81.01 -139.525 81.01 -137 80 C-137 79.34 -137 78.68 -137 78 C-136.01 78 -135.02 78 -134 78 C-134 77.34 -134 76.68 -134 76 C-132.609375 74.5625 -132.609375 74.5625 -130.75 73 C-130.14671875 72.484375 -129.5434375 71.96875 -128.921875 71.4375 C-127 70 -127 70 -124.9375 68.9765625 C-122.07923657 67.53590553 -120.18279372 65.30406004 -118 63 C-116.515 63.495 -116.515 63.495 -115 64 C-115 65.98 -115 67.96 -115 70 C-91.57 70 -68.14 70 -44 70 C-44 69.34 -44 68.68 -44 68 C-43.34 68 -42.68 68 -42 68 C-42 67.34 -42 66.68 -42 66 C-41.34 66 -40.68 66 -40 66 C-39.90203125 65.41734375 -39.8040625 64.8346875 -39.703125 64.234375 C-38.60215186 58.19800503 -36.94841675 52.54477035 -34.90234375 46.76171875 C-34.05615816 44.171878 -33.50618723 41.6731706 -33 39 C-32.51574305 37.12087249 -32.0153804 35.24583084 -31.5 33.375 C-31.2421875 32.43398437 -30.984375 31.49296875 -30.71875 30.5234375 C-30.19054263 28.66897034 -29.60975827 26.82927481 -29 25 C-28.34 25 -27.68 25 -27 25 C-27 24.34 -27 23.68 -27 23 C-26.34 23 -25.68 23 -25 23 C-25 22.34 -25 21.68 -25 21 C-24.34 21 -23.68 21 -23 21 C-23 20.34 -23 19.68 -23 19 C-22.34 19 -21.68 19 -21 19 C-21 18.34 -21 17.68 -21 17 C-20.34 17 -19.68 17 -19 17 C-19 16.34 -19 15.68 -19 15 C-17.68 15 -16.36 15 -15 15 C-15 14.34 -15 13.68 -15 13 C-14.34 13 -13.68 13 -13 13 C-13 12.34 -13 11.68 -13 11 C-12.34 11 -11.68 11 -11 11 C-11 10.34 -11 9.68 -11 9 C-10.34 9 -9.68 9 -9 9 C-9 8.34 -9 7.68 -9 7 C-3.58823529 3 -3.58823529 3 -1 3 C-0.67 2.01 -0.34 1.02 0 0 Z " fill="#2975BB" transform="translate(229,73)"/>
<path d="M0 0 C5.61 0 11.22 0 17 0 C17 0.66 17 1.32 17 2 C18.32 2 19.64 2 21 2 C21 2.66 21 3.32 21 4 C21.66 4 22.32 4 23 4 C23 4.66 23 5.32 23 6 C23.66 6 24.32 6 25 6 C28.04364359 13.10183505 27.95534942 18.43069305 27 26 C26.34 26 25.68 26 25 26 C24.896875 26.639375 24.79375 27.27875 24.6875 27.9375 C24.460625 28.618125 24.23375 29.29875 24 30 C23.01 30.33 22.02 30.66 21 31 C20.835 31.66 20.67 32.32 20.5 33 C20.2525 33.99 20.2525 33.99 20 35 C18.515 35.495 18.515 35.495 17 36 C16.34 35.67 15.68 35.34 15 35 C15 35.66 15 36.32 15 37 C10.61414671 37.70173653 6.44209357 38.10834375 2 38 C2 37.34 2 36.68 2 36 C0.68 36 -0.64 36 -2 36 C-2 35.01 -2 34.02 -2 33 C-2.5775 32.7525 -3.155 32.505 -3.75 32.25 C-6.52672238 30.70737646 -8.05971169 29.55471294 -10 27 C-10.49089931 24.06803302 -10.37772214 21.21217117 -10.25 18.25 C-10.23195312 17.45722656 -10.21390625 16.66445312 -10.1953125 15.84765625 C-10.14833082 13.89791652 -10.07659044 11.94880122 -10 10 C-9.34 10 -8.68 10 -8 10 C-8 8.68 -8 7.36 -8 6 C-7.34 6 -6.68 6 -6 6 C-6 5.34 -6 4.68 -6 4 C-5.34 4 -4.68 4 -4 4 C-4 3.34 -4 2.68 -4 2 C-2.68 2 -1.36 2 0 2 C0 1.34 0 0.68 0 0 Z " fill="#2873B9" transform="translate(175,180)"/>
<path d="M0 0 C5.94 0 11.88 0 18 0 C18 0.66 18 1.32 18 2 C18.99 2 19.98 2 21 2 C21 2.66 21 3.32 21 4 C22.32 4 23.64 4 25 4 C25 5.32 25 6.64 25 8 C25.66 8 26.32 8 27 8 C29.84856221 13.34105415 30.01690945 19.49257578 28.34765625 25.25 C25.62655974 31.41626161 21.30403657 34.2653808 15.5 37.3125 C8.65449979 39.19501256 4.26808319 37.49329883 -1.765625 34.2890625 C-3.55053285 33.25930797 -5.28543314 32.14304457 -7 31 C-7 30.01 -7 29.02 -7 28 C-7.66 27.67 -8.32 27.34 -9 27 C-9.13539281 24.10259378 -9.23426829 21.21154379 -9.3125 18.3125 C-9.35439453 17.49587891 -9.39628906 16.67925781 -9.43945312 15.83789062 C-9.52949614 11.38976552 -9.47869586 9.60466846 -6.625 6 C-4.44581751 4.33967048 -2.52814225 3.02998388 0 2 C0 1.34 0 0.68 0 0 Z " fill="#2873B9" transform="translate(116,180)"/>
<path d="M0 0 C0.99 0 1.98 0 3 0 C3 7.92 3 15.84 3 24 C2.01 23.67 1.02 23.34 0 23 C0 15.41 0 7.82 0 0 Z " fill="#000000" transform="translate(31,33)"/>
<path d="M0 0 C0.33 0 0.66 0 1 0 C1.33 2.64 1.66 5.28 2 8 C2.99 8 3.98 8 5 8 C5 8.66 5 9.32 5 10 C3.0625 10.5625 3.0625 10.5625 1 11 C0 10 0 10 -0.09765625 7.71484375 C-0.08605469 6.79832031 -0.07445312 5.88179688 -0.0625 4.9375 C-0.05347656 4.01839844 -0.04445312 3.09929687 -0.03515625 2.15234375 C-0.02355469 1.44207031 -0.01195312 0.73179688 0 0 Z " fill="#000105" transform="translate(195,72)"/>
</svg>
