<svg version="1.1" id="Layer_1" xmlns="http://www.w3.org/2000/svg" xmlns:xlink="http://www.w3.org/1999/xlink" x="0px" y="0px"
	 width="100%" viewBox="0 0 256 256" enable-background="new 0 0 256 256" xml:space="preserve">
<path fill="#3C105B" opacity="1.000000" stroke="none" 
	d="
M1.000000,96.000000 
	C1.000000,64.000008 1.000000,32.500011 1.000000,1.000013 
	C86.333313,1.000008 171.666626,1.000008 256.999939,1.000004 
	C256.999969,86.333290 256.999969,171.666580 257.000000,256.999908 
	C171.666718,256.999939 86.333435,256.999939 1.000077,256.999969 
	C1.000000,203.500000 1.000000,150.000000 1.000000,96.000000 
M21.117702,95.600830 
	C20.079004,96.735153 19.040306,97.869476 17.356821,98.740784 
	C12.971535,97.384361 12.350933,100.460587 11.606715,103.537415 
	C6.259881,125.642830 9.136547,147.343857 16.438097,168.297379 
	C20.331158,179.469437 25.991274,190.346985 32.655495,200.130188 
	C37.956501,207.912170 45.926807,213.899124 52.845081,220.544510 
	C55.553158,223.145752 58.619328,225.375092 61.538822,227.753662 
	C61.773178,227.944595 62.135662,227.978241 62.401867,228.072037 
	C63.060368,227.018921 63.708138,225.982956 64.667152,224.449203 
	C65.620186,227.587097 65.616379,230.912674 67.090546,231.809921 
	C71.732224,234.635056 76.892365,236.633301 81.919769,238.793488 
	C88.313599,241.540817 94.773926,244.133408 101.205582,246.792709 
	C103.445892,247.188141 106.276550,246.425903 108.880409,246.902573 
	C127.473419,250.306244 145.694748,248.096695 163.765289,243.584457 
	C166.942764,242.791046 169.987427,241.331604 172.967743,239.915283 
	C177.089630,237.956497 181.058899,235.678482 185.159500,233.672058 
	C187.390396,232.580475 189.993164,232.122711 192.026840,230.773926 
	C210.502258,218.520737 225.912491,203.393051 235.615967,183.120575 
	C239.327347,175.366791 244.041077,167.897308 243.303543,158.684921 
	C243.227753,157.738129 244.292999,156.707214 244.807465,155.704422 
	C245.755905,153.855621 247.160782,152.087463 247.529312,150.126678 
	C248.295639,146.049377 248.810837,141.873398 248.882278,137.728531 
	C249.000977,130.843109 250.308380,123.707321 245.401749,117.580162 
	C244.618561,116.602165 244.925064,114.751549 244.565079,112.110580 
	C246.881989,113.879684 248.015427,114.745132 249.148849,115.610573 
	C249.585052,115.510689 250.021240,115.410812 250.457443,115.310928 
	C250.290756,113.811722 250.413254,112.204132 249.900009,110.834824 
	C248.648972,107.497124 246.973099,104.319153 245.710968,100.985008 
	C244.303574,97.267197 244.290451,92.018867 241.680405,89.962204 
	C235.759598,85.296707 234.479233,79.688499 234.600311,72.943008 
	C234.621613,71.756805 233.658936,70.491135 232.981735,69.363640 
	C225.508408,56.921276 216.993515,45.358585 205.419022,36.314182 
	C193.427414,26.943836 180.518127,19.215221 166.152695,14.079406 
	C165.082932,13.696951 163.366165,13.884026 162.449951,14.522986 
	C158.045013,17.594944 154.481445,15.962141 150.632477,13.277980 
	C147.699951,11.232944 144.336700,8.614554 141.061600,8.461210 
	C127.986130,7.849002 114.800926,6.684855 102.021255,11.389281 
	C97.787514,12.947796 93.138680,13.378685 87.793251,14.513264 
	C87.032898,15.127882 85.491440,16.881754 83.556450,17.845446 
	C77.018929,21.101353 70.067650,23.612747 63.806881,27.310141 
	C59.009880,30.143084 53.613903,33.554813 51.052986,38.142868 
	C48.374649,42.941269 45.692318,44.541115 41.427536,43.850552 
	C40.531361,46.190998 40.231911,48.507812 38.969749,50.022346 
	C30.206320,60.538055 22.855511,71.873962 17.697325,84.600342 
	C14.986907,91.287529 14.904152,91.253990 21.117702,95.600830 
z"/>
<path fill="#43135E" opacity="1.000000" stroke="none" 
	d="
M18.001610,99.003799 
	C19.040306,97.869476 20.079004,96.735153 21.332434,95.342987 
	C26.345234,96.382172 26.677620,93.103783 27.070658,89.771408 
	C27.409065,86.902199 27.208569,83.702736 28.449095,81.260124 
	C31.360373,75.527763 34.702030,69.958199 38.392616,64.689156 
	C45.827698,54.074089 54.081959,44.537178 65.245705,37.103722 
	C74.976105,30.624659 85.622635,26.663488 96.050407,22.297091 
	C109.741768,16.564140 124.654991,16.890753 139.311676,18.047205 
	C143.848938,18.405209 148.466248,20.938572 152.761200,20.358919 
	C157.971146,19.655781 161.731598,21.793858 165.912872,23.618162 
	C168.657974,24.815866 171.357315,26.136898 174.160110,27.179716 
	C178.407547,28.760036 182.392380,30.423756 181.487228,34.597404 
	C185.497467,36.701351 188.855392,38.276905 192.029129,40.162453 
	C202.240494,46.229118 209.212769,55.658710 216.276520,64.749855 
	C232.859222,86.092018 239.099899,110.848297 237.174484,137.429367 
	C236.439117,147.581314 232.588776,157.472153 230.846634,167.600433 
	C229.862396,173.322510 227.458328,177.135666 221.835205,179.106110 
	C220.671753,179.435196 219.675339,179.652023 218.709076,179.862274 
	C218.821579,181.757004 218.917419,183.371002 218.710342,185.106644 
	C216.544266,186.244705 214.953171,187.111572 216.571457,189.820190 
	C217.263565,190.978592 217.219910,193.300797 216.498138,194.468262 
	C208.863800,206.816803 189.462112,222.341049 175.746307,227.456024 
	C175.066589,227.709473 174.592804,228.503784 174.010681,229.032547 
	C172.573700,230.337814 171.333893,232.133133 169.643570,232.826904 
	C166.586380,234.081650 163.264633,234.700256 160.042725,235.543839 
	C136.109879,241.810211 112.313675,242.490738 89.118401,232.694031 
	C81.503357,229.477753 73.878654,225.702042 67.294701,220.792419 
	C60.851303,215.987579 55.928955,209.193161 49.942173,203.704849 
	C46.897709,200.913849 42.944580,199.127701 39.481640,196.770615 
	C38.527435,196.121124 37.585255,195.176483 37.117222,194.148819 
	C36.186123,192.104416 35.970764,189.665283 34.793896,187.812042 
	C21.111261,166.265869 14.844369,143.097717 18.757282,117.528015 
	C19.202276,114.620117 18.730158,111.562271 18.595657,108.577904 
	C18.451714,105.384094 18.204021,102.194969 18.001610,99.003799 
M206.357254,65.984947 
	C202.421097,66.649704 199.401108,65.865173 197.233994,61.923992 
	C196.015778,59.708523 193.379776,58.311256 191.549942,56.386234 
	C186.064270,50.615185 178.834808,47.566116 172.256912,43.434402 
	C162.889633,37.550636 152.481583,36.095707 142.110992,33.941555 
	C139.045731,33.304848 136.205551,31.619335 133.148148,30.897861 
	C131.109207,30.416719 128.780655,30.406794 126.738602,30.873074 
	C123.709679,31.564695 120.886398,33.482773 117.860168,33.809364 
	C91.419655,36.662899 70.572044,49.454475 53.488541,69.261612 
	C51.186291,71.930908 48.242130,74.041145 45.654697,76.473549 
	C44.978394,77.109337 43.888317,78.215698 44.069241,78.711449 
	C45.841179,83.566803 42.505383,87.006180 40.833954,90.836288 
	C35.197369,103.752602 32.939995,117.469032 33.397610,131.278961 
	C33.717491,140.932312 36.542709,150.535995 38.644600,160.074661 
	C39.204735,162.616608 41.429001,164.746628 42.514431,167.229614 
	C43.832504,170.244797 44.148487,173.846878 45.946384,176.478912 
	C56.307682,191.647385 67.694656,205.759903 85.245026,213.428864 
	C89.728172,215.387878 93.673820,218.576965 97.395683,220.906296 
	C100.091911,220.906296 102.920639,220.630493 105.669388,220.981293 
	C108.612984,221.356964 111.451782,222.492661 114.387421,223.002121 
	C128.637253,225.475143 142.381653,223.328339 156.249954,219.511276 
	C177.761780,213.590469 194.108170,201.092056 207.061142,183.355362 
	C208.975281,180.734283 212.291428,179.137085 215.010864,177.096497 
	C215.010864,177.096497 215.069641,176.957001 214.823212,176.258636 
	C215.497101,172.776901 215.635010,169.078094 216.941391,165.852509 
	C221.601364,154.346527 225.407776,142.777451 223.488617,130.088043 
	C223.352554,129.188339 223.535645,127.763184 224.127609,127.309525 
	C227.479248,124.740868 226.754959,122.269958 224.521637,119.426407 
	C223.885406,118.616325 224.006256,117.194160 223.827026,116.045341 
	C221.833176,103.265846 217.815689,91.130142 211.334274,79.965874 
	C208.753510,75.520477 206.695953,71.223053 207.349915,65.633240 
	C207.633881,65.012154 207.917862,64.391075 208.201843,63.769993 
	C207.969604,63.689846 207.737366,63.609703 207.505127,63.529560 
	C207.313171,64.329933 207.121231,65.130302 206.357254,65.984947 
M26.957455,122.458427 
	C27.263283,122.435989 27.569113,122.413544 27.874939,122.391106 
	C27.754576,122.134537 27.634212,121.877960 27.513853,121.621399 
	C27.288052,121.816689 27.062248,122.011978 26.957455,122.458427 
M130.206619,229.344467 
	C130.117935,229.480118 130.029266,229.615768 129.940582,229.751419 
	C130.049896,229.666824 130.159225,229.582230 130.206619,229.344467 
M134.794952,229.745377 
	C134.794952,229.745377 134.825638,229.940735 134.825638,229.940735 
	C134.825638,229.940735 134.875763,229.748627 134.794952,229.745377 
M35.488224,157.478653 
	C35.488224,157.478653 35.496323,157.513458 35.488224,157.478653 
z"/>
<path fill="#3F125D" opacity="1.000000" stroke="none" 
	d="
M222.002228,178.993820 
	C227.458328,177.135666 229.862396,173.322510 230.846634,167.600433 
	C232.588776,157.472153 236.439117,147.581314 237.174484,137.429367 
	C239.099899,110.848297 232.859222,86.092018 216.276520,64.749855 
	C209.212769,55.658710 202.240494,46.229118 192.029129,40.162453 
	C188.855392,38.276905 185.497467,36.701351 181.487228,34.597404 
	C182.392380,30.423756 178.407547,28.760036 174.160110,27.179716 
	C171.357315,26.136898 168.657974,24.815866 165.912872,23.618162 
	C161.731598,21.793858 157.971146,19.655781 152.761200,20.358919 
	C148.466248,20.938572 143.848938,18.405209 139.311676,18.047205 
	C124.654991,16.890753 109.741768,16.564140 96.050407,22.297091 
	C85.622635,26.663488 74.976105,30.624659 65.245705,37.103722 
	C54.081959,44.537178 45.827698,54.074089 38.392616,64.689156 
	C34.702030,69.958199 31.360373,75.527763 28.449095,81.260124 
	C27.208569,83.702736 27.409065,86.902199 27.070658,89.771408 
	C26.677620,93.103783 26.345234,96.382172 21.253944,95.045975 
	C14.904152,91.253990 14.986907,91.287529 17.697325,84.600342 
	C22.855511,71.873962 30.206320,60.538055 38.969749,50.022346 
	C40.231911,48.507812 40.531361,46.190998 41.427536,43.850552 
	C45.692318,44.541115 48.374649,42.941269 51.052986,38.142868 
	C53.613903,33.554813 59.009880,30.143084 63.806881,27.310141 
	C70.067650,23.612747 77.018929,21.101353 83.556450,17.845446 
	C85.491440,16.881754 87.032898,15.127882 87.793251,14.513264 
	C93.138680,13.378685 97.787514,12.947796 102.021255,11.389281 
	C114.800926,6.684855 127.986130,7.849002 141.061600,8.461210 
	C144.336700,8.614554 147.699951,11.232944 150.632477,13.277980 
	C154.481445,15.962141 158.045013,17.594944 162.449951,14.522986 
	C163.366165,13.884026 165.082932,13.696951 166.152695,14.079406 
	C180.518127,19.215221 193.427414,26.943836 205.419022,36.314182 
	C216.993515,45.358585 225.508408,56.921276 232.981735,69.363640 
	C233.658936,70.491135 234.621613,71.756805 234.600311,72.943008 
	C234.479233,79.688499 235.759598,85.296707 241.680405,89.962204 
	C244.290451,92.018867 244.303574,97.267197 245.710968,100.985008 
	C246.973099,104.319153 248.648972,107.497124 249.900009,110.834824 
	C250.413254,112.204132 250.290756,113.811722 250.457443,115.310928 
	C250.021240,115.410812 249.585052,115.510689 249.148849,115.610573 
	C248.015427,114.745132 246.881989,113.879684 244.565079,112.110580 
	C244.925064,114.751549 244.618561,116.602165 245.401749,117.580162 
	C250.308380,123.707321 249.000977,130.843109 248.882278,137.728531 
	C248.810837,141.873398 248.295639,146.049377 247.529312,150.126678 
	C247.160782,152.087463 245.755905,153.855621 244.807465,155.704422 
	C244.292999,156.707214 243.227753,157.738129 243.303543,158.684921 
	C244.041077,167.897308 239.327347,175.366791 235.615967,183.120575 
	C225.912491,203.393051 210.502258,218.520737 192.026840,230.773926 
	C189.993164,232.122711 187.390396,232.580475 185.159500,233.672058 
	C181.058899,235.678482 177.089630,237.956497 172.967743,239.915283 
	C169.987427,241.331604 166.942764,242.791046 163.765289,243.584457 
	C145.694748,248.096695 127.473419,250.306244 108.880409,246.902573 
	C106.276550,246.425903 103.445892,247.188141 101.205582,246.792709 
	C94.773926,244.133408 88.313599,241.540817 81.919769,238.793488 
	C76.892365,236.633301 71.732224,234.635056 67.090546,231.809921 
	C65.616379,230.912674 65.620186,227.587097 64.667152,224.449203 
	C63.708138,225.982956 63.060368,227.018921 62.401867,228.072037 
	C62.135662,227.978241 61.773178,227.944595 61.538822,227.753662 
	C58.619328,225.375092 55.553158,223.145752 52.845081,220.544510 
	C45.926807,213.899124 37.956501,207.912170 32.655495,200.130188 
	C25.991274,190.346985 20.331158,179.469437 16.438097,168.297379 
	C9.136547,147.343857 6.259881,125.642830 11.606715,103.537415 
	C12.350933,100.460587 12.971535,97.384361 17.679216,98.872292 
	C18.204021,102.194969 18.451714,105.384094 18.595657,108.577904 
	C18.730158,111.562271 19.202276,114.620117 18.757282,117.528015 
	C14.844369,143.097717 21.111261,166.265869 34.793896,187.812042 
	C35.970764,189.665283 36.186123,192.104416 37.117222,194.148819 
	C37.585255,195.176483 38.527435,196.121124 39.481640,196.770615 
	C42.944580,199.127701 46.897709,200.913849 49.942173,203.704849 
	C55.928955,209.193161 60.851303,215.987579 67.294701,220.792419 
	C73.878654,225.702042 81.503357,229.477753 89.118401,232.694031 
	C112.313675,242.490738 136.109879,241.810211 160.042725,235.543839 
	C163.264633,234.700256 166.586380,234.081650 169.643570,232.826904 
	C171.333893,232.133133 172.573700,230.337814 174.010681,229.032547 
	C174.592804,228.503784 175.066589,227.709473 175.746307,227.456024 
	C189.462112,222.341049 208.863800,206.816803 216.498138,194.468262 
	C217.219910,193.300797 217.263565,190.978592 216.571457,189.820190 
	C214.953171,187.111572 216.544266,186.244705 219.037994,184.984589 
	C220.787521,184.404877 221.906464,184.068878 223.216766,183.725204 
	C223.788528,182.806656 224.168915,181.895798 224.549286,180.984940 
	C224.034424,180.973724 223.519562,180.962509 222.861023,180.716431 
	C222.478989,179.985657 222.240601,179.489731 222.002228,178.993820 
M225.959961,187.454300 
	C225.959961,187.454300 226.006561,187.458420 225.959961,187.454300 
M177.479004,229.512451 
	C177.479004,229.512451 177.512665,229.504807 177.479004,229.512451 
z"/>
<path fill="#481460" opacity="1.000000" stroke="none" 
	d="
M214.958923,177.066162 
	C212.291428,179.137085 208.975281,180.734283 207.061142,183.355362 
	C194.108170,201.092056 177.761780,213.590469 156.249954,219.511276 
	C142.381653,223.328339 128.637253,225.475143 114.387421,223.002121 
	C111.451782,222.492661 108.612984,221.356964 105.669388,220.981293 
	C102.920639,220.630493 100.091911,220.906296 97.395683,220.906296 
	C93.673820,218.576965 89.728172,215.387878 85.245026,213.428864 
	C67.694656,205.759903 56.307682,191.647385 45.946384,176.478912 
	C44.148487,173.846878 43.832504,170.244797 42.514431,167.229614 
	C41.429001,164.746628 39.204735,162.616608 38.644600,160.074661 
	C36.542709,150.535995 33.717491,140.932312 33.397610,131.278961 
	C32.939995,117.469032 35.197369,103.752602 40.833954,90.836288 
	C42.505383,87.006180 45.841179,83.566803 44.069241,78.711449 
	C43.888317,78.215698 44.978394,77.109337 45.654697,76.473549 
	C48.242130,74.041145 51.186291,71.930908 53.488541,69.261612 
	C70.572044,49.454475 91.419655,36.662899 117.860168,33.809364 
	C120.886398,33.482773 123.709679,31.564695 126.738602,30.873074 
	C128.780655,30.406794 131.109207,30.416719 133.148148,30.897861 
	C136.205551,31.619335 139.045731,33.304848 142.110992,33.941555 
	C152.481583,36.095707 162.889633,37.550636 172.256912,43.434402 
	C178.834808,47.566116 186.064270,50.615185 191.549942,56.386234 
	C193.379776,58.311256 196.015778,59.708523 197.233994,61.923992 
	C199.401108,65.865173 202.421097,66.649704 206.672058,65.980820 
	C206.986862,65.976685 207.045929,66.020782 207.045929,66.020782 
	C206.695953,71.223053 208.753510,75.520477 211.334274,79.965874 
	C217.815689,91.130142 221.833176,103.265846 223.827026,116.045341 
	C224.006256,117.194160 223.885406,118.616325 224.521637,119.426407 
	C226.754959,122.269958 227.479248,124.740868 224.127609,127.309525 
	C223.535645,127.763184 223.352554,129.188339 223.488617,130.088043 
	C225.407776,142.777451 221.601364,154.346527 216.941391,165.852509 
	C215.635010,169.078094 215.497101,172.776901 214.919922,176.636292 
	C215.016632,177.013962 214.958923,177.066162 214.958923,177.066162 
M100.960129,198.001831 
	C109.983391,197.965500 119.006645,197.929153 128.954636,198.031067 
	C143.450897,198.058380 157.947174,198.114243 172.443420,198.103714 
	C183.494339,198.095673 188.347672,193.331512 188.789001,181.560852 
	C188.607147,181.050049 188.425293,180.539261 188.060272,179.532684 
	C188.044220,179.357254 188.028152,179.181808 188.547562,178.610107 
	C191.468124,174.658722 194.524002,170.798584 197.268372,166.728409 
	C199.658798,163.183151 201.697693,159.400848 203.891907,155.723297 
	C204.890732,154.328293 204.740845,152.337158 204.917923,150.375549 
	C205.529053,143.605865 206.370010,136.855774 206.913498,130.081375 
	C208.336807,112.340828 200.677841,97.164185 192.944366,82.085762 
	C192.192245,80.619308 189.776276,80.006203 188.115891,78.224937 
	C188.249161,77.729782 188.382446,77.234619 188.688293,76.462425 
	C188.794540,76.268394 188.885193,76.067322 188.898209,75.109901 
	C188.320389,72.995140 187.742554,70.880386 187.073013,68.082993 
	C184.129303,62.712109 179.535355,60.756355 173.506042,60.782722 
	C145.264374,60.906239 117.021851,60.830269 88.779633,60.839828 
	C76.458603,60.843998 71.401421,66.671745 72.474564,79.448547 
	C68.960030,84.394707 64.796722,89.010010 62.069473,94.357681 
	C56.806061,104.678329 51.726700,115.122032 52.900764,127.446121 
	C54.329971,142.448486 56.886230,156.931534 65.122566,170.016922 
	C67.316818,173.502991 67.795822,178.068710 69.129845,182.789612 
	C69.738647,185.262390 70.347458,187.735168 71.051903,190.874924 
	C73.516853,195.197693 77.160362,197.857971 82.184830,197.979843 
	C88.131302,198.124069 94.086212,197.919724 100.960129,198.001831 
M50.081081,135.978165 
	C50.081081,135.978165 49.883007,136.005600 49.883007,136.005600 
	C49.883007,136.005600 50.073917,136.059448 50.081081,135.978165 
M51.100307,107.803452 
	C51.100307,107.803452 51.244843,107.923630 51.244843,107.923630 
	C51.244843,107.923630 51.159935,107.757965 51.100307,107.803452 
z"/>
<path fill="#481460" opacity="1.000000" stroke="none" 
	d="
M221.835205,179.106110 
	C222.240601,179.489731 222.478989,179.985657 222.856506,181.070099 
	C223.005569,182.350052 223.015488,183.041458 223.025406,183.732880 
	C221.906464,184.068878 220.787521,184.404877 219.340912,184.862946 
	C218.917419,183.371002 218.821579,181.757004 218.709076,179.862274 
	C219.675339,179.652023 220.671753,179.435196 221.835205,179.106110 
z"/>
<path fill="#481460" opacity="1.000000" stroke="none" 
	d="
M206.958069,65.953674 
	C207.121231,65.130302 207.313171,64.329933 207.505127,63.529560 
	C207.737366,63.609703 207.969604,63.689846 208.201843,63.769993 
	C207.917862,64.391075 207.633881,65.012154 207.197922,65.827011 
	C207.045929,66.020782 206.986862,65.976685 206.958069,65.953674 
z"/>
<path fill="#481460" opacity="1.000000" stroke="none" 
	d="
M26.896950,122.332855 
	C27.062248,122.011978 27.288052,121.816689 27.513851,121.621399 
	C27.634212,121.877960 27.754576,122.134537 27.874939,122.391106 
	C27.569113,122.413544 27.263283,122.435989 26.896950,122.332855 
z"/>
<path fill="#481460" opacity="1.000000" stroke="none" 
	d="
M130.237579,229.421051 
	C130.159225,229.582230 130.049896,229.666824 129.940582,229.751434 
	C130.029266,229.615768 130.117935,229.480118 130.237579,229.421051 
z"/>
<path fill="#481460" opacity="1.000000" stroke="none" 
	d="
M134.835358,229.747009 
	C134.875763,229.748627 134.825638,229.940735 134.825638,229.940735 
	C134.825638,229.940735 134.794952,229.745377 134.835358,229.747009 
z"/>
<path fill="#481460" opacity="1.000000" stroke="none" 
	d="
M215.043137,176.985474 
	C215.069641,176.957001 215.010864,177.096497 214.984894,177.081329 
	C214.958923,177.066162 215.016632,177.013962 215.043137,176.985474 
z"/>
<path fill="#481460" opacity="1.000000" stroke="none" 
	d="
M35.492271,157.496063 
	C35.496323,157.513458 35.488224,157.478653 35.492271,157.496063 
z"/>
<path fill="#43135E" opacity="1.000000" stroke="none" 
	d="
M223.216766,183.725189 
	C223.015488,183.041458 223.005569,182.350052 223.000153,181.304962 
	C223.519562,180.962509 224.034424,180.973724 224.549286,180.984940 
	C224.168915,181.895798 223.788528,182.806656 223.216766,183.725189 
z"/>
<path fill="#481460" opacity="1.000000" stroke="none" 
	d="
M225.983261,187.456360 
	C226.006561,187.458420 225.959961,187.454300 225.983261,187.456360 
z"/>
<path fill="#43135E" opacity="1.000000" stroke="none" 
	d="
M177.495834,229.508636 
	C177.512665,229.504807 177.479004,229.512451 177.495834,229.508636 
z"/>
<path fill="#FF3567" opacity="1.000000" stroke="none" 
	d="
M72.969818,79.006874 
	C71.401421,66.671745 76.458603,60.843998 88.779633,60.839828 
	C117.021851,60.830269 145.264374,60.906239 173.506042,60.782722 
	C179.535355,60.756355 184.129303,62.712109 186.960205,68.571083 
	C182.809662,72.181641 181.132721,69.811737 180.201599,64.533470 
	C178.318176,68.929070 177.036118,71.921181 175.917542,74.531738 
	C173.816956,74.659019 171.762970,74.320793 170.101791,74.976990 
	C166.211334,76.513794 162.669403,79.434219 158.693466,80.136765 
	C152.602356,81.213043 148.562881,84.558342 144.785553,88.737091 
	C143.873245,88.462608 143.117249,88.447159 141.914764,88.329361 
	C140.559784,88.289757 139.651321,88.352501 138.631241,88.379112 
	C138.519638,88.342987 138.298187,88.420380 137.877899,88.329269 
	C136.890289,88.296356 136.322968,88.354561 135.638306,88.377205 
	C135.520966,88.341644 135.288116,88.418587 134.811157,88.314789 
	C119.745712,88.178711 105.153870,88.310005 90.570854,88.010918 
	C86.387985,87.925125 82.230621,86.595497 77.892609,85.554947 
	C76.139046,83.184761 74.554428,81.095818 72.969818,79.006874 
z"/>
<path fill="#4E1663" opacity="1.000000" stroke="none" 
	d="
M72.722191,79.227707 
	C74.554428,81.095818 76.139046,83.184761 78.046005,85.879593 
	C82.469055,95.130745 81.764366,103.804878 77.967117,112.226051 
	C70.784584,128.154755 73.974693,142.656662 83.370377,156.496445 
	C84.094528,157.563126 84.478294,158.860901 84.991516,160.282959 
	C84.962769,160.514664 84.870445,160.972382 84.578720,161.129639 
	C79.212097,168.237503 74.137207,175.188126 69.062317,182.138748 
	C67.795822,178.068710 67.316818,173.502991 65.122566,170.016922 
	C56.886230,156.931534 54.329971,142.448486 52.900764,127.446121 
	C51.726700,115.122032 56.806061,104.678329 62.069473,94.357681 
	C64.796722,89.010010 68.960030,84.394707 72.722191,79.227707 
z"/>
<path fill="#4D1662" opacity="1.000000" stroke="none" 
	d="
M188.132660,78.996994 
	C189.776276,80.006203 192.192245,80.619308 192.944366,82.085762 
	C200.677841,97.164185 208.336807,112.340828 206.913498,130.081375 
	C206.370010,136.855774 205.529053,143.605865 204.917923,150.375549 
	C204.740845,152.337158 204.890732,154.328293 203.891907,155.723297 
	C201.697693,159.400848 199.658798,163.183151 197.268372,166.728409 
	C194.524002,170.798584 191.468124,174.658722 188.019882,178.594147 
	C184.343857,175.994217 181.195496,173.410248 178.205521,170.535049 
	C182.365799,162.320236 186.675781,154.531296 190.226013,146.410248 
	C191.759644,142.902130 192.004288,138.731323 192.333069,134.819412 
	C192.802078,129.238785 192.810074,123.619392 193.043213,117.887970 
	C193.106476,117.495659 193.088379,117.235138 193.014008,116.735611 
	C193.010834,116.493423 193.003922,116.009056 192.944885,115.699051 
	C192.606201,113.589714 192.326569,111.790375 192.131088,109.872070 
	C192.223282,109.493805 192.231339,109.234512 192.239380,108.975220 
	C192.106949,109.264740 191.974487,109.554253 191.533401,109.906166 
	C189.164536,109.631950 187.104309,109.295334 184.847702,108.686768 
	C181.422455,104.252495 178.193573,100.090172 175.108643,95.626266 
	C179.545929,89.882118 183.839294,84.439552 188.132660,78.996994 
z"/>
<path fill="#FE4460" opacity="1.000000" stroke="none" 
	d="
M188.124268,78.610962 
	C183.839294,84.439552 179.545929,89.882118 174.851303,95.757454 
	C173.990677,96.531990 173.531311,96.873756 172.775116,97.084808 
	C170.611404,97.370377 168.485931,97.347992 166.918381,98.272026 
	C153.917587,105.935677 141.136169,113.978462 128.025040,121.444038 
	C123.704079,123.904427 118.611435,125.009575 113.942627,126.410515 
	C122.253937,116.053619 130.494263,106.020615 138.937408,95.750229 
	C140.046646,94.662994 140.953049,93.813141 142.052307,92.771271 
	C142.482407,92.304298 142.719604,92.029350 143.032074,91.539566 
	C143.267075,91.048065 143.499023,90.860954 143.867371,90.688766 
	C144.048538,90.441521 144.123291,90.251839 144.132889,89.792694 
	C144.102753,89.371490 144.095520,89.202682 144.301758,89.026138 
	C144.515228,89.018394 144.941864,88.996109 144.941864,88.996109 
	C148.562881,84.558342 152.602356,81.213043 158.693466,80.136765 
	C162.669403,79.434219 166.211334,76.513794 170.101791,74.976990 
	C171.762970,74.320793 173.816956,74.659019 175.917542,74.531738 
	C177.036118,71.921181 178.318176,68.929070 180.201599,64.533470 
	C181.132721,69.811737 182.809662,72.181641 187.006058,68.912399 
	C187.742554,70.880386 188.320389,72.995140 188.794342,75.599953 
	C188.513885,76.274773 188.455627,76.491257 188.515717,76.739464 
	C188.382446,77.234619 188.249161,77.729782 188.124268,78.610962 
M146.519424,90.994232 
	C146.519424,90.994232 146.484085,91.004074 146.519424,90.994232 
M179.488876,69.477028 
	C179.488876,69.477028 179.496140,69.513016 179.488876,69.477028 
M158.478912,83.509781 
	C158.478912,83.509781 158.513916,83.500740 158.478912,83.509781 
z"/>
<path fill="#FE575A" opacity="1.000000" stroke="none" 
	d="
M69.096085,182.464172 
	C74.137207,175.188126 79.212097,168.237503 85.000061,161.127670 
	C87.801682,160.535553 90.200356,160.621063 91.929131,159.586807 
	C104.450951,152.095612 116.839203,144.381058 129.266006,136.731155 
	C134.307968,133.627335 139.294876,130.429398 144.416733,127.464104 
	C145.422150,126.882019 146.932999,127.172974 148.060211,127.368515 
	C140.205032,137.089722 132.500366,146.503693 124.515808,156.090668 
	C120.538742,160.855255 116.841576,165.446869 112.936035,170.059265 
	C112.727661,170.080048 112.309586,170.104813 111.914795,170.109756 
	C108.998337,171.209778 106.421097,172.193726 103.965767,173.421448 
	C97.456902,176.676086 90.966614,179.971680 84.535255,183.376266 
	C80.054245,185.748352 77.763199,192.445648 70.956261,190.207947 
	C70.347458,187.735168 69.738647,185.262390 69.096085,182.464172 
z"/>
<path fill="#FE774D" opacity="1.000000" stroke="none" 
	d="
M178.047150,170.826263 
	C181.195496,173.410248 184.343857,175.994217 187.752136,178.792282 
	C188.028152,179.181808 188.044220,179.357254 188.129700,180.064789 
	C188.431656,181.094330 188.664154,181.591751 188.896652,182.089172 
	C188.347672,193.331512 183.494339,198.095673 172.443420,198.103714 
	C157.947174,198.114243 143.450897,198.058380 128.638229,197.663864 
	C128.731750,196.783203 129.038071,196.093735 129.566971,195.782394 
	C139.056763,190.196030 148.682846,184.831024 158.025986,179.011230 
	C161.365021,176.931335 164.033524,173.774979 167.455765,171.038391 
	C170.921661,170.900253 173.939911,170.833725 177.227753,170.830887 
	C177.680618,170.871811 177.863876,170.849045 178.047150,170.826263 
z"/>
<path fill="#FF6454" opacity="1.000000" stroke="none" 
	d="
M71.004082,190.541443 
	C77.763199,192.445648 80.054245,185.748352 84.535255,183.376266 
	C90.966614,179.971680 97.456902,176.676086 103.965767,173.421448 
	C106.421097,172.193726 108.998337,171.209778 112.024887,170.318069 
	C112.989983,170.549515 113.450195,170.577591 114.272621,170.699280 
	C115.125549,170.729752 115.616264,170.666595 116.295044,170.636627 
	C116.483101,170.669785 116.858047,170.597107 117.228531,170.693756 
	C118.101669,170.728073 118.604324,170.665756 119.295036,170.636597 
	C119.483086,170.669769 119.858017,170.597107 120.228500,170.693756 
	C121.101662,170.728073 121.604324,170.665756 122.295044,170.636597 
	C122.483101,170.669754 122.858032,170.597092 123.228516,170.693741 
	C124.101685,170.728073 124.604355,170.665756 125.295074,170.636597 
	C125.483116,170.669754 125.858025,170.597092 126.233086,170.693542 
	C127.116432,170.726059 127.624710,170.662125 128.464203,170.678589 
	C129.466156,170.701614 130.136917,170.644241 131.186554,170.686417 
	C132.080338,170.724472 132.595245,170.662994 133.297424,170.635254 
	C133.484695,170.668976 133.858414,170.597061 134.236389,170.692657 
	C135.126312,170.723801 135.638260,170.659363 136.555588,170.683624 
	C138.635590,170.870392 140.310226,170.968475 141.884979,171.396790 
	C140.679993,175.248276 138.883224,176.610336 134.725449,175.867874 
	C132.282776,175.431686 129.244904,177.345566 126.717751,178.667084 
	C124.585548,179.782059 122.807190,181.571548 120.866035,183.054413 
	C114.092049,188.229095 105.349136,190.635132 100.037468,197.866470 
	C94.086212,197.919724 88.131302,198.124069 82.184830,197.979843 
	C77.160362,197.857971 73.516853,195.197693 71.004082,190.541443 
z"/>
<path fill="#FF6F50" opacity="1.000000" stroke="none" 
	d="
M100.498795,197.934143 
	C105.349136,190.635132 114.092049,188.229095 120.866035,183.054413 
	C122.807190,181.571548 124.585548,179.782059 126.717751,178.667084 
	C129.244904,177.345566 132.282776,175.431686 134.725449,175.867874 
	C138.883224,176.610336 140.679993,175.248276 142.352798,171.339996 
	C150.949692,171.005295 158.978897,171.057632 167.008102,171.109970 
	C164.033524,173.774979 161.365021,176.931335 158.025986,179.011230 
	C148.682846,184.831024 139.056763,190.196030 129.566971,195.782394 
	C129.038071,196.093735 128.731750,196.783203 128.175873,197.594742 
	C119.006645,197.929153 109.983391,197.965500 100.498795,197.934143 
z"/>
<path fill="#4E1663" opacity="1.000000" stroke="none" 
	d="
M50.077499,136.018799 
	C50.073917,136.059448 49.883007,136.005600 49.883007,136.005600 
	C49.883007,136.005600 50.081081,135.978165 50.077499,136.018799 
z"/>
<path fill="#4E1663" opacity="1.000000" stroke="none" 
	d="
M51.130119,107.780708 
	C51.159935,107.757965 51.244843,107.923630 51.244843,107.923630 
	C51.244843,107.923630 51.100307,107.803452 51.130119,107.780708 
z"/>
<path fill="#4D1662" opacity="1.000000" stroke="none" 
	d="
M188.842834,181.825012 
	C188.664154,181.591751 188.431656,181.094330 188.221283,180.312683 
	C188.425293,180.539261 188.607147,181.050049 188.842834,181.825012 
z"/>
<path fill="#4D1662" opacity="1.000000" stroke="none" 
	d="
M188.602005,76.600945 
	C188.455627,76.491257 188.513885,76.274773 188.825378,75.974609 
	C188.885193,76.067322 188.794540,76.268394 188.602005,76.600945 
z"/>
<path fill="#561866" opacity="1.000000" stroke="none" 
	d="
M141.859436,92.963280 
	C140.953049,93.813141 140.046646,94.662994 138.515350,95.749573 
	C136.558945,95.955185 135.219055,96.009789 133.897232,95.880104 
	C114.590370,93.985924 96.249931,106.338966 96.320999,128.809372 
	C96.335365,133.352493 98.584419,137.888550 99.637527,142.714188 
	C99.214211,143.358444 98.956573,143.716385 98.585297,144.185852 
	C98.325584,144.449753 98.192307,144.612610 98.028633,144.888885 
	C97.985435,144.991821 97.780594,145.080643 97.656006,145.187958 
	C97.371025,145.444580 97.223099,145.605362 96.911636,146.078857 
	C92.830521,150.937149 88.925392,155.494202 85.020264,160.051254 
	C84.478294,158.860901 84.094528,157.563126 83.370377,156.496445 
	C73.974693,142.656662 70.784584,128.154755 77.967117,112.226051 
	C81.764366,103.804878 82.469055,95.130745 78.214958,86.160828 
	C82.230621,86.595497 86.387985,87.925125 90.570854,88.010918 
	C105.153870,88.310005 119.745712,88.178711 134.863495,88.338905 
	C135.392792,88.466812 135.755661,88.412766 135.755661,88.412766 
	C136.322968,88.354561 136.890289,88.296356 137.927216,88.353355 
	C138.396851,88.468559 138.742844,88.415245 138.742844,88.415237 
	C139.651321,88.352501 140.559784,88.289757 142.112274,88.428207 
	C143.200287,88.764229 143.644287,88.899055 144.088272,89.033882 
	C144.095520,89.202682 144.102753,89.371490 144.012634,89.956352 
	C143.915283,90.372414 143.803223,90.763405 143.803223,90.763405 
	C143.499023,90.860954 143.267075,91.048065 142.783905,91.676483 
	C142.260117,92.339920 142.059769,92.651596 141.859436,92.963280 
z"/>
<path fill="#5C1968" opacity="1.000000" stroke="none" 
	d="
M144.301758,89.026138 
	C143.644287,88.899055 143.200287,88.764229 142.558777,88.530548 
	C143.117249,88.447159 143.873245,88.462608 144.785553,88.737091 
	C144.941864,88.996109 144.515228,89.018394 144.301758,89.026138 
z"/>
<path fill="#5C1968" opacity="1.000000" stroke="none" 
	d="
M135.638306,88.377205 
	C135.755661,88.412766 135.392792,88.466812 135.340454,88.442703 
	C135.288116,88.418587 135.520966,88.341644 135.638306,88.377205 
z"/>
<path fill="#5C1968" opacity="1.000000" stroke="none" 
	d="
M138.631241,88.379120 
	C138.742844,88.415245 138.396851,88.468559 138.347519,88.444473 
	C138.298187,88.420380 138.519638,88.342987 138.631241,88.379120 
z"/>
<path fill="#FF4D5E" opacity="1.000000" stroke="none" 
	d="
M98.698936,144.074310 
	C98.956573,143.716385 99.214211,143.358444 99.897636,142.540405 
	C104.290314,137.398346 108.257195,132.716415 112.458542,127.899780 
	C113.128510,127.443268 113.564011,127.121452 113.950195,126.817322 
	C113.900887,126.835014 113.871635,126.734398 113.871635,126.734406 
	C118.611435,125.009575 123.704079,123.904427 128.025040,121.444038 
	C141.136169,113.978462 153.917587,105.935677 166.918381,98.272026 
	C168.485931,97.347992 170.611404,97.370377 172.646332,97.391647 
	C167.879761,103.914375 162.945129,109.999565 157.726349,116.253632 
	C154.365036,119.968758 151.287888,123.515022 148.210739,127.061279 
	C146.932999,127.172974 145.422150,126.882019 144.416733,127.464104 
	C139.294876,130.429398 134.307968,133.627335 129.266006,136.731155 
	C116.839203,144.381058 104.450951,152.095612 91.929131,159.586807 
	C90.200356,160.621063 87.801682,160.535553 85.291794,160.970413 
	C84.870445,160.972382 84.962769,160.514664 84.991516,160.282959 
	C88.925392,155.494202 92.830521,150.937149 97.079498,146.026093 
	C97.638107,145.532791 97.757187,145.335648 97.780594,145.080643 
	C97.780594,145.080643 97.985435,144.991821 98.193283,144.835663 
	C98.618011,144.535782 98.717285,144.334045 98.698936,144.074310 
z"/>
<path fill="#561866" opacity="1.000000" stroke="none" 
	d="
M158.010498,116.084755 
	C162.945129,109.999565 167.879761,103.914375 172.943176,97.522354 
	C173.531311,96.873756 173.990677,96.531990 174.707367,96.059036 
	C178.193573,100.090172 181.422455,104.252495 184.826050,108.709259 
	C185.000778,109.003693 184.958878,109.048172 184.606506,109.075905 
	C183.056335,110.126122 181.858536,111.148598 180.660721,112.171082 
	C182.294373,113.416054 183.928009,114.661026 185.479126,116.265045 
	C183.791397,121.407784 181.600510,126.083664 180.696014,130.996368 
	C178.417648,143.371277 174.950638,154.985947 165.246017,163.850967 
	C163.478149,165.465897 162.423950,167.862076 160.567871,169.913849 
	C152.113724,170.151718 144.131973,170.373322 136.150223,170.594940 
	C135.638260,170.659363 135.126312,170.723801 134.145355,170.667038 
	C133.483154,170.516785 133.294418,170.535339 133.110168,170.601517 
	C132.595245,170.662994 132.080338,170.724472 130.971436,170.616180 
	C129.629318,170.496994 128.881149,170.547577 128.132996,170.598175 
	C127.624710,170.662125 127.116432,170.726059 126.141747,170.668152 
	C125.481331,170.517792 125.291893,170.536835 125.107033,170.603439 
	C124.604355,170.665756 124.101685,170.728073 123.137177,170.668335 
	C122.481323,170.517792 122.291870,170.536835 122.106995,170.603439 
	C121.604324,170.665756 121.101662,170.728073 120.137177,170.668335 
	C119.481323,170.517807 119.291870,170.536850 119.106987,170.603439 
	C118.604324,170.665756 118.101669,170.728073 117.137177,170.668365 
	C116.481323,170.517822 116.291870,170.536865 116.106987,170.603455 
	C115.616264,170.666595 115.125549,170.729752 114.155243,170.592133 
	C113.509743,170.256927 113.332657,170.139297 113.144409,170.038498 
	C116.841576,165.446869 120.538742,160.855255 124.909142,156.162079 
	C128.989594,156.481125 132.474747,157.583908 135.790680,157.205185 
	C150.776077,155.493668 158.331528,138.620178 157.756134,126.453056 
	C157.593246,123.008667 157.912415,119.541481 158.010498,116.084755 
z"/>
<path fill="#511663" opacity="1.000000" stroke="none" 
	d="
M161.040283,169.897614 
	C162.423950,167.862076 163.478149,165.465897 165.246017,163.850967 
	C174.950638,154.985947 178.417648,143.371277 180.696014,130.996368 
	C181.600510,126.083664 183.791397,121.407784 185.759521,116.320358 
	C187.068085,115.699379 188.013748,115.382133 189.304382,115.105988 
	C190.767563,115.434402 191.885742,115.721725 193.003922,116.009048 
	C193.003922,116.009056 193.010834,116.493423 193.012054,116.995392 
	C193.013870,117.670425 193.014435,117.843491 193.014984,118.016563 
	C192.810074,123.619392 192.802078,129.238785 192.333069,134.819412 
	C192.004288,138.731323 191.759644,142.902130 190.226013,146.410248 
	C186.675781,154.531296 182.365799,162.320236 178.205521,170.535049 
	C177.863876,170.849045 177.680618,170.871811 176.844025,170.695618 
	C171.140564,170.296967 166.090424,170.097290 161.040283,169.897614 
z"/>
<path fill="#561866" opacity="1.000000" stroke="none" 
	d="
M192.944885,115.699051 
	C191.885742,115.721725 190.767563,115.434402 189.114197,114.834427 
	C187.372299,112.697235 186.165588,110.872704 184.958878,109.048172 
	C184.958878,109.048172 185.000778,109.003693 185.022430,108.981209 
	C187.104309,109.295334 189.164536,109.631950 191.583710,109.944275 
	C191.942642,109.919983 192.046936,109.991035 192.046936,109.991035 
	C192.326569,111.790375 192.606201,113.589714 192.944885,115.699051 
z"/>
<path fill="#561866" opacity="1.000000" stroke="none" 
	d="
M191.892334,109.881882 
	C191.974487,109.554253 192.106949,109.264740 192.239380,108.975220 
	C192.231339,109.234512 192.223282,109.493805 192.131088,109.872070 
	C192.046936,109.991035 191.942642,109.919983 191.892334,109.881882 
z"/>
<path fill="#561866" opacity="1.000000" stroke="none" 
	d="
M193.043213,117.887970 
	C193.014435,117.843491 193.013870,117.670425 193.015228,117.237579 
	C193.088379,117.235138 193.106476,117.495659 193.043213,117.887970 
z"/>
<path fill="#5C1968" opacity="1.000000" stroke="none" 
	d="
M112.224068,128.034485 
	C108.257195,132.716415 104.290314,137.398346 100.063324,142.254059 
	C98.584419,137.888550 96.335365,133.352493 96.320999,128.809372 
	C96.249931,106.338966 114.590370,93.985924 133.897232,95.880104 
	C135.219055,96.009789 136.558945,95.955185 138.312500,95.986946 
	C130.494263,106.020615 122.253937,116.053619 113.942627,126.410507 
	C113.871635,126.734398 113.900887,126.835014 113.655579,126.864380 
	C113.014870,127.273987 112.619469,127.654236 112.224068,128.034485 
z"/>
<path fill="#FF3567" opacity="1.000000" stroke="none" 
	d="
M146.501755,90.999153 
	C146.484085,91.004074 146.519424,90.994232 146.501755,90.999153 
z"/>
<path fill="#FF3567" opacity="1.000000" stroke="none" 
	d="
M179.492508,69.495026 
	C179.496140,69.513016 179.488876,69.477028 179.492508,69.495026 
z"/>
<path fill="#FF3567" opacity="1.000000" stroke="none" 
	d="
M142.052307,92.771263 
	C142.059769,92.651596 142.260117,92.339920 142.708649,91.891319 
	C142.719604,92.029350 142.482407,92.304298 142.052307,92.771263 
z"/>
<path fill="#FF3567" opacity="1.000000" stroke="none" 
	d="
M143.867371,90.688766 
	C143.803223,90.763405 143.915283,90.372414 144.035522,90.208755 
	C144.123291,90.251839 144.048538,90.441521 143.867371,90.688766 
z"/>
<path fill="#FF3567" opacity="1.000000" stroke="none" 
	d="
M158.496414,83.505264 
	C158.513916,83.500740 158.478912,83.509781 158.496414,83.505264 
z"/>
<path fill="#5C1968" opacity="1.000000" stroke="none" 
	d="
M157.726349,116.253632 
	C157.912415,119.541481 157.593246,123.008667 157.756134,126.453056 
	C158.331528,138.620178 150.776077,155.493668 135.790680,157.205185 
	C132.474747,157.583908 128.989594,156.481125 125.189041,155.989090 
	C132.500366,146.503693 140.205032,137.089722 148.060211,127.368515 
	C151.287888,123.515022 154.365036,119.968758 157.726349,116.253632 
z"/>
<path fill="#5C1968" opacity="1.000000" stroke="none" 
	d="
M112.936035,170.059265 
	C113.332657,170.139297 113.509743,170.256927 113.793045,170.498505 
	C113.450195,170.577591 112.989983,170.549515 112.419678,170.313126 
	C112.309586,170.104813 112.727661,170.080048 112.936035,170.059265 
z"/>
<path fill="#5C1968" opacity="1.000000" stroke="none" 
	d="
M160.567886,169.913864 
	C166.090424,170.097290 171.140564,170.296967 176.574417,170.631927 
	C173.939911,170.833725 170.921661,170.900253 167.455765,171.038391 
	C158.978897,171.057632 150.949692,171.005295 142.452667,171.009766 
	C140.310226,170.968475 138.635590,170.870392 136.555588,170.683624 
	C144.131973,170.373322 152.113724,170.151718 160.567886,169.913864 
z"/>
<path fill="#5C1968" opacity="1.000000" stroke="none" 
	d="
M128.464203,170.678589 
	C128.881149,170.547577 129.629318,170.496994 130.592575,170.516632 
	C130.136917,170.644241 129.466156,170.701614 128.464203,170.678589 
z"/>
<path fill="#5C1968" opacity="1.000000" stroke="none" 
	d="
M133.297424,170.635254 
	C133.294418,170.535339 133.483154,170.516785 133.767395,170.571442 
	C133.858414,170.597061 133.484695,170.668976 133.297424,170.635254 
z"/>
<path fill="#5C1968" opacity="1.000000" stroke="none" 
	d="
M125.295074,170.636597 
	C125.291893,170.536835 125.481331,170.517792 125.766685,170.571686 
	C125.858025,170.597092 125.483116,170.669754 125.295074,170.636597 
z"/>
<path fill="#5C1968" opacity="1.000000" stroke="none" 
	d="
M122.295044,170.636597 
	C122.291870,170.536835 122.481323,170.517792 122.766693,170.571686 
	C122.858032,170.597092 122.483101,170.669754 122.295044,170.636597 
z"/>
<path fill="#5C1968" opacity="1.000000" stroke="none" 
	d="
M119.295036,170.636597 
	C119.291870,170.536850 119.481323,170.517807 119.766685,170.571701 
	C119.858017,170.597107 119.483086,170.669769 119.295036,170.636597 
z"/>
<path fill="#5C1968" opacity="1.000000" stroke="none" 
	d="
M116.295044,170.636627 
	C116.291870,170.536865 116.481323,170.517822 116.766701,170.571716 
	C116.858047,170.597107 116.483101,170.669785 116.295044,170.636627 
z"/>
<path fill="#5C1968" opacity="1.000000" stroke="none" 
	d="
M97.656006,145.187958 
	C97.757187,145.335648 97.638107,145.532791 97.255493,145.724838 
	C97.223099,145.605362 97.371025,145.444580 97.656006,145.187958 
z"/>
<path fill="#5C1968" opacity="1.000000" stroke="none" 
	d="
M98.585297,144.185852 
	C98.717285,144.334045 98.618011,144.535782 98.236481,144.732712 
	C98.192307,144.612610 98.325584,144.449753 98.585297,144.185852 
z"/>
<path fill="#FE4460" opacity="1.000000" stroke="none" 
	d="
M112.458542,127.899780 
	C112.619469,127.654236 113.014870,127.273987 113.704895,126.846687 
	C113.564011,127.121452 113.128510,127.443268 112.458542,127.899780 
z"/>
<path fill="#4D1662" opacity="1.000000" stroke="none" 
	d="
M184.606506,109.075905 
	C186.165588,110.872704 187.372299,112.697235 188.769196,114.793335 
	C188.013748,115.382133 187.068085,115.699379 185.842041,115.961311 
	C183.928009,114.661026 182.294373,113.416054 180.660721,112.171082 
	C181.858536,111.148598 183.056335,110.126122 184.606506,109.075905 
z"/>
</svg>